<?xml version="1.0" standalone="no"?>
<!DOCTYPE svg PUBLIC "-//W3C//DTD SVG 20010904//EN"
 "http://www.w3.org/TR/2001/REC-SVG-20010904/DTD/svg10.dtd">
<svg version="1.0" xmlns="http://www.w3.org/2000/svg"
 width="664.000000pt" height="664.000000pt" viewBox="0 0 664.000000 664.000000"
 preserveAspectRatio="xMidYMid meet">
<metadata>
Created by potrace 1.14, written by Peter Selinger 2001-2017
</metadata>
<g transform="translate(0.000000,664.000000) scale(0.100000,-0.100000)"
fill="#000000" stroke="none">
<path d="M0 3388 l0 -3253 25 25 c15 16 569 1242 1451 3210 784 1752 1435
3204 1445 3228 l18 42 -1469 0 -1470 0 0 -3252z"/>
<path d="M3540 5197 l0 -1443 35 -34 36 -35 357 357 c196 196 859 851 1472
1456 613 605 1124 1109 1134 1121 l19 21 -1526 0 -1527 0 0 -1443z"/>
<path d="M5668 5177 c-532 -523 -999 -981 -1038 -1016 -38 -35 -70 -69 -70
-75 0 -10 968 -1863 1033 -1976 14 -25 244 -463 512 -975 267 -511 497 -941
511 -955 l24 -25 0 2988 c0 1643 -1 2987 -2 2987 -2 0 -438 -429 -970 -953z"/>
<path d="M3063 5808 c-12 -13 -323 -698 -693 -1522 l-671 -1499 22 -24 22 -23
672 0 672 0 21 23 22 23 0 1500 0 1501 -23 21 -23 22 -21 -22z"/>
<path d="M3892 3425 l-333 -330 1 -1547 0 -1548 1331 0 c1142 0 1330 2 1326
14 -9 22 -1100 2102 -1144 2181 -22 39 -209 394 -417 791 -224 428 -388 731
-404 745 l-27 25 -333 -331z"/>
<path d="M1487 2283 c-16 -18 -216 -453 -527 -1148 -276 -615 -504 -1123 -506
-1127 -3 -4 598 -8 1335 -8 l1341 0 0 1133 0 1134 -23 21 -23 22 -785 0 -785
0 -27 -27z"/>
</g>
</svg>
